<svg width="27" height="28" viewBox="0 0 27 28" fill="none" xmlns="http://www.w3.org/2000/svg">
<path d="M18.942 5.5625C19.5563 5.56198 20.1646 5.68411 20.7311 5.92172C21.2976 6.15934 21.811 6.50765 22.2411 6.94625C23.1274 7.84601 23.6242 9.05829 23.6242 10.3213C23.6242 11.5842 23.1274 12.7965 22.2411 13.6963L13.4998 22.5472L4.75859 13.6963C3.8723 12.7965 3.37551 11.5842 3.37551 10.3213C3.37551 9.05829 3.8723 7.84601 4.75859 6.94625C5.18898 6.50797 5.70239 6.15983 6.26883 5.92219C6.83527 5.68454 7.44338 5.56214 8.05765 5.56214C8.67193 5.56214 9.28004 5.68454 9.84648 5.92219C10.4129 6.15983 10.9263 6.50797 11.3567 6.94625L13.4998 9.14L15.6345 6.96313C16.0634 6.5193 16.5773 6.16651 17.1456 5.92585C17.7139 5.6852 18.3249 5.56162 18.942 5.5625ZM18.942 3.875C18.103 3.87429 17.2723 4.0411 16.4986 4.36564C15.7249 4.69019 15.0238 5.16594 14.4364 5.765L13.4998 6.71L12.5633 5.765C11.9751 5.16702 11.2739 4.6921 10.5003 4.36791C9.72674 4.04373 8.89639 3.87677 8.05765 3.87677C7.21891 3.87677 6.38856 4.04373 5.61501 4.36791C4.84145 4.6921 4.14016 5.16702 3.55203 5.765C2.35549 6.98306 1.68506 8.62224 1.68506 10.3297C1.68506 12.0371 2.35549 13.6763 3.55203 14.8944L13.4998 24.9688L23.4477 14.8944C24.6442 13.6763 25.3146 12.0371 25.3146 10.3297C25.3146 8.62224 24.6442 6.98306 23.4477 5.765C22.8594 5.16708 22.1581 4.69208 21.3846 4.36762C20.6111 4.04315 19.7808 3.8757 18.942 3.875Z" fill="#FF0000"/>
</svg>
