<svg width="27" height="28" viewBox="0 0 27 28" fill="none" xmlns="http://www.w3.org/2000/svg">
<path d="M9.28125 8.09375C9.28125 6.97487 9.72572 5.90181 10.5169 5.11064C11.3081 4.31947 12.3811 3.875 13.5 3.875C14.6189 3.875 15.6919 4.31947 16.4831 5.11064C17.2743 5.90181 17.7188 6.97487 17.7188 8.09375V8.9375H17.6934C17.3781 8.93716 17.0664 9.00483 16.7795 9.13587C16.4927 9.26692 16.2374 9.45826 16.0312 9.69687V8.09375C16.0312 7.42242 15.7646 6.77859 15.2899 6.30389C14.8152 5.82918 14.1713 5.5625 13.5 5.5625C12.8287 5.5625 12.1848 5.82918 11.7101 6.30389C11.2354 6.77859 10.9688 7.42242 10.9688 8.09375V14C10.9686 14.4595 11.0936 14.9104 11.3302 15.3043C11.5668 15.6982 11.9062 16.0203 12.312 16.2359C12.5651 16.5447 12.9009 16.7793 13.2789 16.9126L13.2992 16.9194L14.6036 17.3429C14.731 17.3866 14.848 17.456 14.9473 17.5469C15.0466 17.6377 15.126 17.7481 15.1808 17.8711C14.5387 18.15 13.8373 18.2647 13.1399 18.205C12.4424 18.1452 11.7708 17.9129 11.1855 17.5288C10.6003 17.1448 10.1198 16.6212 9.78733 16.0051C9.4549 15.3891 9.28098 14.7 9.28125 14V8.09375ZM21.5713 14.3594L21.5966 14.3662C21.6955 14.4019 21.781 14.4672 21.8415 14.5533C21.9019 14.6394 21.9343 14.742 21.9343 14.8471C21.9343 14.9523 21.9019 15.0549 21.8415 15.141C21.781 15.227 21.6955 15.2924 21.5966 15.3281L20.3057 15.7466C19.9128 15.8772 19.5558 16.0976 19.2629 16.3902C18.97 16.6828 18.7493 17.0397 18.6182 17.4324L18.1997 18.7216C18.1649 18.8211 18.1001 18.9072 18.0141 18.968C17.9298 19.0283 17.8291 19.0613 17.7255 19.0625H17.7188C17.613 19.063 17.5098 19.0304 17.4235 18.9693C17.3373 18.9081 17.2723 18.8215 17.2378 18.7216L16.8176 17.4324C16.6874 17.0389 16.4672 16.6812 16.1746 16.3877C15.8819 16.0942 15.5249 15.8729 15.1318 15.7415L13.8409 15.3213C13.7412 15.2864 13.6548 15.2213 13.5937 15.1352C13.5326 15.049 13.4998 14.946 13.4998 14.8404C13.4998 14.7348 13.5326 14.6317 13.5937 14.5456C13.6548 14.4594 13.7412 14.3944 13.8409 14.3594L15.1318 13.9409C15.5197 13.8067 15.8713 13.5847 16.1593 13.2923C16.4473 12.9999 16.664 12.645 16.7923 12.2551L17.2125 10.9659C17.2474 10.8662 17.3125 10.7798 17.3986 10.7187C17.4848 10.6576 17.5878 10.6248 17.6934 10.6248C17.7991 10.6248 17.9021 10.6576 17.9882 10.7187C18.0744 10.7798 18.1394 10.8662 18.1744 10.9659L18.5946 12.2551C18.7255 12.6477 18.946 13.0044 19.2385 13.297C19.5311 13.5896 19.8878 13.81 20.2804 13.9409L21.5713 14.3594ZM16.4497 20.3467C16.1353 20.1241 15.885 19.8226 15.7241 19.4726C14.8273 19.8371 13.8546 19.9756 12.8917 19.8759C11.9288 19.7762 11.0051 19.4413 10.202 18.9008C9.39891 18.3602 8.741 17.6305 8.28618 16.7759C7.83136 15.9214 7.59357 14.9681 7.59375 14C7.59375 13.7762 7.50486 13.5616 7.34662 13.4034C7.18839 13.2451 6.97378 13.1562 6.75 13.1562C6.52622 13.1562 6.31161 13.2451 6.15338 13.4034C5.99515 13.5616 5.90625 13.7762 5.90625 14C5.90589 15.8681 6.59417 17.6709 7.83947 19.0634C9.08476 20.456 10.7997 21.3406 12.6562 21.5482V23.2812C12.6562 23.505 12.7451 23.7196 12.9034 23.8779C13.0616 24.0361 13.2762 24.125 13.5 24.125C13.7238 24.125 13.9384 24.0361 14.0966 23.8779C14.2549 23.7196 14.3438 23.505 14.3438 23.2812V21.5482C15.2245 21.4497 16.0811 21.1979 16.875 20.804C16.8725 20.7308 16.8747 20.6575 16.8817 20.5846C16.7293 20.5218 16.5843 20.442 16.4497 20.3467ZM25.0189 20.3636L23.9861 20.0261C23.6718 19.9222 23.3861 19.7464 23.1517 19.5126C22.9173 19.2788 22.7408 18.9935 22.6361 18.6794L22.302 17.6467C22.2737 17.5673 22.2216 17.4985 22.1527 17.4499C22.0838 17.4013 22.0016 17.3752 21.9172 17.3752C21.8329 17.3752 21.7507 17.4013 21.6818 17.4499C21.6129 17.4985 21.5608 17.5673 21.5325 17.6467L21.195 18.6794C21.0929 18.9913 20.9201 19.2753 20.69 19.5092C20.4599 19.7431 20.1788 19.9206 19.8686 20.0278L18.8342 20.3636C18.7553 20.3922 18.6872 20.4444 18.639 20.513C18.5909 20.5817 18.565 20.6636 18.565 20.7475C18.565 20.8314 18.5909 20.9132 18.639 20.9819C18.6872 21.0506 18.7553 21.1028 18.8342 21.1314L19.8686 21.4689C20.183 21.5733 20.4686 21.7498 20.7027 21.9841C20.9368 22.2185 21.1129 22.5044 21.2169 22.8189L21.5528 23.8533C21.5732 23.9133 21.6074 23.9677 21.6527 24.0121C21.698 24.0564 21.753 24.0895 21.8134 24.1087C21.8738 24.1279 21.9379 24.1327 22.0005 24.1226C22.0631 24.1126 22.1224 24.0879 22.1737 24.0508C22.2426 24.002 22.2945 23.933 22.3223 23.8533L22.6597 22.8206C22.7639 22.5066 22.9398 22.2212 23.1736 21.9871C23.4073 21.753 23.6925 21.5767 24.0064 21.4722L25.0408 21.1364C25.1197 21.1078 25.1878 21.0556 25.236 20.987C25.2841 20.9183 25.31 20.8364 25.31 20.7525C25.31 20.6686 25.2841 20.5868 25.236 20.5181C25.1878 20.4494 25.1197 20.3972 25.0408 20.3686L25.0189 20.3636Z" fill="#D91D1D"/>
</svg>
