<svg width="27" height="28" viewBox="0 0 27 28" fill="none" xmlns="http://www.w3.org/2000/svg">
<path d="M20.25 17.375V10.625C20.25 7.4435 20.25 5.85162 19.2611 4.86387C18.2734 3.875 16.6815 3.875 13.5 3.875H9C5.8185 3.875 4.22662 3.875 3.23887 4.86387C2.25 5.85162 2.25 7.4435 2.25 10.625V17.375C2.25 20.5565 2.25 22.1484 3.23887 23.1361C4.22662 24.125 5.8185 24.125 9 24.125H22.5M6.75 9.5H15.75M6.75 14H15.75M6.75 18.5H11.25" stroke="#2E9100" stroke-width="1.5" stroke-linecap="round" stroke-linejoin="round"/>
<path d="M20.25 9.5H21.375C22.9658 9.5 23.7611 9.5 24.255 9.995C24.75 10.4889 24.75 11.2842 24.75 12.875V21.875C24.75 22.4717 24.5129 23.044 24.091 23.466C23.669 23.8879 23.0967 24.125 22.5 24.125C21.9033 24.125 21.331 23.8879 20.909 23.466C20.4871 23.044 20.25 22.4717 20.25 21.875V9.5Z" stroke="#2E9100" stroke-width="1.5" stroke-linecap="round" stroke-linejoin="round"/>
</svg>
