<svg width="22" height="22" viewBox="0 0 22 22" fill="none" xmlns="http://www.w3.org/2000/svg">
<path d="M17.7026 18.6912C18.1051 19.0937 18.7264 18.4725 18.3239 18.0787L15.0426 14.7887C16.1939 13.5154 16.8302 11.8592 16.8276 10.1425C16.8276 6.30124 13.7039 3.17749 9.86264 3.17749C6.02139 3.17749 2.89764 6.30124 2.89764 10.1425C2.89764 13.9837 6.02139 17.1075 9.86264 17.1075C11.5951 17.1075 13.1964 16.4687 14.4214 15.41L17.7026 18.6912ZM3.77177 10.1425C3.77177 6.78249 6.51052 4.05249 9.86177 4.05249C13.2218 4.05249 15.9518 6.78249 15.9518 10.1425C15.9518 13.5025 13.2218 16.2325 9.86177 16.2325C6.51052 16.2325 3.77177 13.5025 3.77177 10.1425Z" fill="#929292"/>
</svg>
