<svg width="52" height="52" viewBox="0 0 52 52" fill="none" xmlns="http://www.w3.org/2000/svg">
<circle cx="26" cy="26" r="25.5" fill="white" stroke="#464646"/>
<g clip-path="url(#clip0_59_129)">
<path d="M25.2949 21.9405C24.4773 21.9405 23.2117 21.0109 21.8789 21.0445C20.1205 21.0669 18.5077 22.0637 17.6005 23.6429C15.7749 26.8125 17.1301 31.4941 18.9109 34.0701C19.7845 35.3245 20.8149 36.7357 22.1813 36.6909C23.4917 36.6349 23.9845 35.8397 25.5749 35.8397C27.1541 35.8397 27.6021 36.6909 28.9909 36.6573C30.4021 36.6349 31.2981 35.3805 32.1605 34.1149C33.1573 32.6589 33.5717 31.2477 33.5941 31.1693C33.5605 31.1581 30.8501 30.1165 30.8165 26.9805C30.7941 24.3597 32.9557 23.1053 33.0565 23.0493C31.8245 21.2461 29.9317 21.0445 29.2709 20.9997C27.5461 20.8653 26.1013 21.9405 25.2949 21.9405ZM28.2069 19.2973C28.9349 18.4237 29.4165 17.2029 29.2821 15.9933C28.2405 16.0381 26.9861 16.6877 26.2357 17.5613C25.5637 18.3341 24.9813 19.5773 25.1381 20.7645C26.2917 20.8541 27.4789 20.1709 28.2069 19.2973Z" fill="black"/>
</g>
<defs>
<clipPath id="clip0_59_129">
<rect width="22.4" height="22.4" fill="white" transform="translate(14.4 15.2)"/>
</clipPath>
</defs>
</svg>
