<svg width="19" height="19" viewBox="0 0 19 19" fill="none" xmlns="http://www.w3.org/2000/svg">
<g clip-path="url(#clip0_241_1919)">
<path d="M13.4583 7.12646C15.1801 7.13596 16.1127 7.21276 16.7207 7.82076C17.4166 8.51663 17.4166 9.63605 17.4166 11.8749V12.6665C17.4166 14.9062 17.4166 16.0256 16.7207 16.7215C16.0256 17.4165 14.9054 17.4165 12.6666 17.4165H6.33325C4.09442 17.4165 2.97421 17.4165 2.27913 16.7215C1.58325 16.0248 1.58325 14.9062 1.58325 12.6665V11.8749C1.58325 9.63605 1.58325 8.51663 2.27913 7.82076C2.88713 7.21276 3.81971 7.13596 5.54159 7.12646" stroke="#E7E7E7" stroke-width="1.5" stroke-linecap="round"/>
<path d="M9.5 1.58325V11.8749M9.5 11.8749L7.125 9.10409M9.5 11.8749L11.875 9.10409" stroke="#E7E7E7" stroke-width="1.5" stroke-linecap="round" stroke-linejoin="round"/>
</g>
<defs>
<clipPath id="clip0_241_1919">
<rect width="19" height="19" fill="white"/>
</clipPath>
</defs>
</svg>
