<svg width="24" height="22" viewBox="0 0 24 22" fill="none" xmlns="http://www.w3.org/2000/svg">
<path d="M17.257 1.6875C17.8713 1.68698 18.4795 1.80911 19.046 2.04672C19.6125 2.28434 20.1259 2.63265 20.556 3.07125C21.4423 3.97101 21.9391 5.18329 21.9391 6.44625C21.9391 7.70922 21.4423 8.92149 20.556 9.82125L11.8148 18.6722L3.07353 9.82125C2.18724 8.92149 1.69045 7.70922 1.69045 6.44625C1.69045 5.18329 2.18724 3.97101 3.07353 3.07125C3.50392 2.63297 4.01733 2.28483 4.58377 2.04719C5.15021 1.80954 5.75832 1.68714 6.37259 1.68714C6.98687 1.68714 7.59498 1.80954 8.16142 2.04719C8.72786 2.28483 9.24127 2.63297 9.67166 3.07125L11.8148 5.265L13.9495 3.08813C14.3783 2.6443 14.8922 2.29151 15.4605 2.05085C16.0288 1.8102 16.6398 1.68662 17.257 1.6875ZM17.257 2.26366e-06C16.418 -0.000708782 15.5873 0.166099 14.8136 0.490645C14.0399 0.81519 13.3388 1.29094 12.7513 1.89L11.8148 2.835L10.8782 1.89C10.2901 1.29202 9.5888 0.817097 8.81524 0.492913C8.04168 0.168728 7.21133 0.00176971 6.37259 0.00176971C5.53385 0.00176971 4.7035 0.168728 3.92995 0.492913C3.15639 0.817097 2.45511 1.29202 1.86697 1.89C0.670429 3.10806 0 4.74724 0 6.45469C0 8.16214 0.670429 9.80132 1.86697 11.0194L11.8148 21.0938L21.7626 11.0194C22.9591 9.80132 23.6296 8.16214 23.6296 6.45469C23.6296 4.74724 22.9591 3.10806 21.7626 1.89C21.1743 1.29208 20.473 0.817079 19.6995 0.492615C18.926 0.168152 18.0958 0.00070166 17.257 2.26366e-06Z" fill="black"/>
</svg>
