<svg width="24" height="24" viewBox="0 0 24 24" fill="none" xmlns="http://www.w3.org/2000/svg">
<path d="M6.865 6.88191C8.04945 5.69353 9.60941 4.95276 11.2789 4.78589C12.9485 4.61902 14.6242 5.03637 16.0204 5.9668C17.4166 6.89723 18.4469 8.28313 18.9356 9.88822C19.4243 11.4933 19.3412 13.2182 18.7004 14.7689C18.0596 16.3195 16.9008 17.5999 15.4216 18.3918C13.9423 19.1836 12.2342 19.4379 10.5885 19.1112C8.94277 18.7846 7.46128 17.8972 6.39661 16.6004C5.33193 15.3037 4.74999 13.6778 4.75 11.9999C4.75 11.801 4.67098 11.6102 4.53033 11.4696C4.38968 11.3289 4.19891 11.2499 4 11.2499C3.80109 11.2499 3.61032 11.3289 3.46967 11.4696C3.32902 11.6102 3.25 11.801 3.25 11.9999C3.24992 14.0249 3.95222 15.9873 5.23718 17.5524C6.52213 19.1176 8.31017 20.1886 10.2965 20.5828C12.2827 20.9771 14.3443 20.6702 16.1296 19.7145C17.9149 18.7587 19.3135 17.2134 20.0868 15.3418C20.8602 13.4703 20.9604 11.3884 20.3705 9.45124C19.7806 7.51404 18.537 5.84143 16.8518 4.71857C15.1665 3.59572 13.144 3.09215 11.1291 3.29371C9.11409 3.49527 7.23141 4.38949 5.802 5.82391C5.77682 5.8489 5.75343 5.87563 5.732 5.90391L4.475 4.64591C4.40778 4.57853 4.32272 4.53174 4.22982 4.51104C4.13692 4.49033 4.04005 4.49657 3.95057 4.52902C3.8611 4.56147 3.78275 4.61878 3.72472 4.69423C3.66669 4.76967 3.6314 4.8601 3.623 4.95491L3.27 8.84391C3.2634 8.91687 3.27292 8.99039 3.29787 9.05926C3.32283 9.12814 3.36261 9.19069 3.41441 9.24249C3.46622 9.29429 3.52877 9.33408 3.59764 9.35904C3.66652 9.38399 3.74004 9.39351 3.813 9.38691L7.703 9.03291C7.79743 9.02401 7.88739 8.98844 7.96236 8.93034C8.03734 8.87224 8.09424 8.79401 8.12643 8.70479C8.15862 8.61556 8.16476 8.51902 8.14415 8.42644C8.12353 8.33386 8.077 8.24904 8.01 8.18191L6.782 6.95391C6.81137 6.93195 6.83911 6.90789 6.865 6.88191Z" fill="white"/>
<path d="M12.75 7C12.75 6.80109 12.671 6.61032 12.5303 6.46967C12.3897 6.32902 12.1989 6.25 12 6.25C11.8011 6.25 11.6103 6.32902 11.4697 6.46967C11.329 6.61032 11.25 6.80109 11.25 7V12C11.2499 12.1272 11.2822 12.2522 11.3438 12.3635C11.4054 12.4747 11.4942 12.5685 11.602 12.636L14.602 14.511C14.7707 14.6166 14.9744 14.6508 15.1683 14.6061C15.2643 14.584 15.355 14.5433 15.4353 14.4861C15.5155 14.4289 15.5837 14.3565 15.636 14.273C15.6883 14.1895 15.7236 14.0965 15.7399 13.9993C15.7562 13.9022 15.7532 13.8027 15.7311 13.7067C15.709 13.6107 15.6683 13.52 15.6111 13.4397C15.5539 13.3595 15.4815 13.2913 15.398 13.239L12.75 11.584V7Z" fill="white"/>
</svg>
