<svg width="18" height="19" viewBox="0 0 18 19" fill="none" xmlns="http://www.w3.org/2000/svg">
<path d="M12.9504 7.12659C14.6723 7.13609 15.6049 7.21288 16.2129 7.82088C16.9088 8.51675 16.9088 9.63617 16.9088 11.875V12.6667C16.9088 14.9063 16.9088 16.0257 16.2129 16.7216C15.5178 17.4167 14.3976 17.4167 12.1588 17.4167H5.82544C3.58661 17.4167 2.4664 17.4167 1.77131 16.7216C1.07544 16.0249 1.07544 14.9063 1.07544 12.6667V11.875C1.07544 9.63617 1.07544 8.51675 1.77131 7.82088C2.37931 7.21288 3.3119 7.13609 5.03377 7.12659" stroke="black" stroke-width="1.5" stroke-linecap="round"/>
<path d="M8.99219 1.58337V11.875M8.99219 11.875L6.61719 9.10421M8.99219 11.875L11.3672 9.10421" stroke="black" stroke-width="1.5" stroke-linecap="round" stroke-linejoin="round"/>
</svg>
