<svg width="52" height="52" viewBox="0 0 52 52" fill="none" xmlns="http://www.w3.org/2000/svg">
<circle cx="26" cy="26" r="26" fill="#119BC7"/>
<path d="M34.9147 18.9361C34.1159 19.3225 33.2853 19.6395 32.4321 19.8834C31.9962 19.4201 31.4544 19.0694 30.8533 18.8614C30.2522 18.6533 29.6096 18.5941 28.9806 18.6887C27.943 18.8798 27.0219 19.4703 26.415 20.3334C25.8082 21.1964 25.5642 22.263 25.7354 23.3041C25.7306 23.3381 25.7306 23.3727 25.7354 23.4067C24.1784 23.3383 22.6532 22.9424 21.2596 22.2447C19.8659 21.5471 18.635 20.5634 17.6471 19.3579C17.1435 20.2181 16.9878 21.2383 17.212 22.2095C17.4362 23.1807 18.0233 24.0294 18.853 24.5818C18.2318 24.5652 17.6238 24.399 17.0806 24.0974V24.1497C17.0828 25.046 17.3902 25.9149 17.952 26.6133C18.5139 27.3117 19.2967 27.798 20.1718 27.9922C19.8349 28.0762 19.4886 28.1182 19.1414 28.1163C18.8926 28.1223 18.6438 28.1016 18.3994 28.0547C18.6529 28.8307 19.1408 29.509 19.7959 29.9961C20.451 30.4832 21.241 30.7551 22.0571 30.7745C20.6701 31.8552 18.9622 32.4424 17.2038 32.4433C16.8906 32.447 16.5776 32.4298 16.2667 32.3919C18.052 33.5493 20.1358 34.1616 22.2634 34.1541C23.7365 34.1761 25.1992 33.9037 26.5656 33.3529C27.932 32.8021 29.1747 31.9839 30.2207 30.9465C31.2667 29.909 32.095 28.673 32.6569 27.3112C33.2189 25.9493 33.5032 24.4889 33.4933 23.0157V22.5117C33.9952 22.0698 34.3856 21.5156 34.6328 20.8943C34.88 20.2729 34.9769 19.602 34.9157 18.9361" fill="white"/>
</svg>
