<svg width="28" height="28" viewBox="0 0 28 28" fill="none" xmlns="http://www.w3.org/2000/svg">
<g clip-path="url(#clip0_251_5215)">
<path d="M9.44468 26.3969C10.2106 26.3969 10.9452 26.0926 11.4868 25.551C12.0284 25.0094 12.3327 24.2748 12.3327 23.5088C12.3327 22.7429 12.0284 22.0083 11.4868 21.4667C10.9452 20.9251 10.2106 20.6208 9.44468 20.6208C8.67872 20.6208 7.94414 20.9251 7.40253 21.4667C6.86091 22.0083 6.55664 22.7429 6.55664 23.5088C6.55664 24.2748 6.86091 25.0094 7.40253 25.551C7.94414 26.0926 8.67872 26.3969 9.44468 26.3969ZM22.4413 22.7866C23.207 22.7866 23.9414 22.4824 24.4828 21.941C25.0242 21.3996 25.3284 20.6652 25.3284 19.8995C25.3284 19.1338 25.0242 18.3995 24.4828 17.8581C23.9414 17.3166 23.207 17.0125 22.4413 17.0125C21.6756 17.0125 20.9413 17.3166 20.3999 17.8581C19.8584 18.3995 19.5542 19.1338 19.5542 19.8995C19.5542 20.6652 19.8584 21.3996 20.3999 21.941C20.9413 22.4824 21.6756 22.7866 22.4413 22.7866Z" stroke="#073DA7" stroke-width="2" stroke-linecap="round" stroke-linejoin="round"/>
<path d="M25.3284 19.8995V8.57882C25.3278 8.4683 25.3018 8.35938 25.2525 8.26048C25.2031 8.16159 25.1317 8.07536 25.0438 8.00845C24.9558 7.94154 24.8536 7.89574 24.7451 7.87459C24.6366 7.85344 24.5248 7.8575 24.4181 7.88646L18.642 9.4891M25.3284 11.9577L14.81 14.8795M12.3337 23.5079V17.6489M4.37059 13.273V17.647M2.18359 15.46H6.55759M9.68381 5.50853C10.542 4.34946 11.0705 1.97925 11.0705 1.97925C11.0705 1.97925 11.5989 4.34946 12.4552 5.50853C13.3211 6.67725 16.077 7.69939 16.077 7.69939C16.077 7.69939 13.3192 8.72153 12.4552 9.89218C11.5989 11.0493 11.0705 13.4195 11.0705 13.4195C11.0705 13.4195 10.542 11.0512 9.68381 9.89025C8.81981 8.72346 6.06388 7.69939 6.06388 7.69939C6.06388 7.69939 8.81981 6.67725 9.68381 5.50853Z" stroke="#073DA7" stroke-width="2" stroke-linecap="round" stroke-linejoin="round"/>
</g>
<defs>
<clipPath id="clip0_251_5215">
<rect width="27" height="27" fill="white" transform="translate(0.5 0.5)"/>
</clipPath>
</defs>
</svg>
