<svg width="24" height="24" viewBox="0 0 24 24" fill="none" xmlns="http://www.w3.org/2000/svg">
<path fill-rule="evenodd" clip-rule="evenodd" d="M12 2.75C11.4032 2.75 10.8309 2.98705 10.409 3.40901C9.98703 3.83097 9.74997 4.40326 9.74997 5V5.26C10.307 5.25 10.918 5.25 11.59 5.25H12.411C13.081 5.25 13.693 5.25 14.251 5.26V5C14.251 4.70444 14.1927 4.41178 14.0796 4.13873C13.9665 3.86568 13.8006 3.6176 13.5916 3.40866C13.3826 3.19971 13.1344 3.034 12.8613 2.92098C12.5882 2.80797 12.2955 2.74987 12 2.75ZM15.75 5.328V5C15.75 4.00544 15.3549 3.05161 14.6516 2.34835C13.9484 1.64509 12.9945 1.25 12 1.25C11.0054 1.25 10.0516 1.64509 9.34832 2.34835C8.64506 3.05161 8.24997 4.00544 8.24997 5V5.328C8.10697 5.34 7.96997 5.354 7.83597 5.371C6.82597 5.496 5.99397 5.758 5.28597 6.345C4.57897 6.932 4.16797 7.702 3.85897 8.672C3.55897 9.612 3.33297 10.819 3.04897 12.338L3.02797 12.448C2.62597 14.591 2.30997 16.28 2.25097 17.611C2.19097 18.976 2.39497 20.106 3.16497 21.033C3.93497 21.961 5.00797 22.369 6.35997 22.562C7.67997 22.75 9.39697 22.75 11.578 22.75H12.423C14.603 22.75 16.321 22.75 17.64 22.562C18.992 22.369 20.066 21.961 20.836 21.033C21.606 20.106 21.808 18.976 21.749 17.611C21.691 16.28 21.374 14.591 20.972 12.448L20.952 12.338C20.667 10.819 20.44 9.611 20.142 8.672C19.832 7.702 19.422 6.932 18.714 6.345C18.007 5.758 17.174 5.495 16.164 5.371C16.0262 5.35411 15.8882 5.33977 15.75 5.328ZM8.01997 6.86C7.16497 6.965 6.64797 7.164 6.24397 7.5C5.84097 7.834 5.54997 8.305 5.28797 9.127C5.02097 9.967 4.80997 11.085 4.51397 12.664C4.09797 14.881 3.80297 16.464 3.74997 17.677C3.69797 18.867 3.88997 19.557 4.31897 20.076C4.74897 20.593 5.39197 20.908 6.57197 21.076C7.77197 21.248 9.38397 21.25 11.64 21.25H12.36C14.617 21.25 16.227 21.248 17.428 21.077C18.608 20.908 19.251 20.593 19.681 20.076C20.111 19.558 20.302 18.868 20.251 17.676C20.197 16.465 19.902 14.881 19.486 12.664C19.19 11.084 18.98 9.968 18.712 9.127C18.45 8.305 18.16 7.834 17.756 7.499C17.352 7.164 16.836 6.965 15.98 6.859C15.104 6.751 13.967 6.75 12.36 6.75H11.64C10.033 6.75 8.89597 6.751 8.01997 6.86Z" fill="white"/>
<path fill-rule="evenodd" clip-rule="evenodd" d="M14.979 10.3689C14.9415 10.3806 14.9048 10.3947 14.869 10.4109C14.761 10.4589 14.619 10.5289 14.394 10.6409L13.077 11.2999C12.9996 11.3385 12.9229 11.3785 12.847 11.4199C12.7992 11.4571 12.7665 11.5104 12.755 11.5699C12.7466 11.8319 12.7473 12.094 12.757 12.3559C12.761 12.4329 12.767 12.4659 12.767 12.4739C12.7869 12.5241 12.8224 12.5665 12.8684 12.5948C12.9144 12.6231 12.9682 12.6358 13.022 12.6309C13.0595 12.6188 13.0962 12.6045 13.132 12.5879C13.24 12.5409 13.382 12.4709 13.606 12.3579L14.923 11.6999C15.0004 11.6614 15.0771 11.6213 15.153 11.5799C15.2008 11.5427 15.2335 11.4894 15.245 11.4299L15.248 11.3849C15.25 11.3389 15.25 11.2779 15.25 11.1709C15.25 10.9199 15.25 10.7609 15.244 10.6429C15.2427 10.6037 15.2391 10.5647 15.233 10.5259C15.2132 10.4759 15.1778 10.4336 15.132 10.4053C15.0863 10.3771 15.0326 10.3643 14.979 10.3689ZM14.797 8.87893C15.1888 8.83332 15.5845 8.9214 15.9199 9.12887C16.2553 9.33634 16.5108 9.65103 16.645 10.0219C16.714 10.2099 16.733 10.3999 16.742 10.5649C16.75 10.7259 16.75 10.9249 16.75 11.1519V11.2109C16.75 11.3729 16.75 11.5449 16.719 11.7109C16.639 12.1329 16.405 12.5109 16.063 12.7719C15.9274 12.8698 15.7823 12.9538 15.63 13.0229L15.594 13.0419L14.261 13.7079C14.058 13.8099 13.88 13.8979 13.731 13.9629C13.581 14.0289 13.401 14.0969 13.203 14.1199C13.0524 14.1376 12.9001 14.1356 12.75 14.1139V16.9999C12.7499 17.5992 12.554 18.182 12.1922 18.6597C11.8304 19.1374 11.3225 19.4839 10.7457 19.6464C10.1689 19.8089 9.55478 19.7785 8.99681 19.5599C8.43885 19.3413 7.96757 18.9464 7.65466 18.4353C7.34176 17.9243 7.20436 17.325 7.26337 16.7286C7.32238 16.1323 7.57457 15.5715 7.98158 15.1317C8.38858 14.6918 8.92812 14.397 9.5181 14.292C10.1081 14.187 10.7162 14.2775 11.25 14.5499V11.7889C11.25 11.6259 11.25 11.4549 11.281 11.2889C11.362 10.8669 11.596 10.4889 11.937 10.2279C12.0726 10.1301 12.2177 10.046 12.37 9.97693L12.406 9.95793L13.74 9.29193C13.943 9.18993 14.12 9.10193 14.27 9.03593C14.42 8.97093 14.599 8.90293 14.797 8.87993M11.25 16.9999C11.25 16.6684 11.1183 16.3505 10.8839 16.116C10.6495 15.8816 10.3315 15.7499 10 15.7499C9.66848 15.7499 9.35054 15.8816 9.11612 16.116C8.8817 16.3505 8.75 16.6684 8.75 16.9999C8.75 17.3314 8.8817 17.6494 9.11612 17.8838C9.35054 18.1182 9.66848 18.2499 10 18.2499C10.3315 18.2499 10.6495 18.1182 10.8839 17.8838C11.1183 17.6494 11.25 17.3314 11.25 16.9999Z" fill="white"/>
</svg>
