<svg width="34" height="34" viewBox="0 0 34 34" fill="none" xmlns="http://www.w3.org/2000/svg">
<circle cx="17" cy="17" r="17" fill="#D7D7D7"/>
<path d="M23.525 15.1554L14.52 9.6467C14.3682 9.55373 14.1943 9.50298 14.0163 9.49968C13.8383 9.49639 13.6627 9.54067 13.5075 9.62795C13.3538 9.71388 13.2258 9.83919 13.1366 9.99099C13.0474 10.1428 13.0003 10.3156 13 10.4917V21.5079C13.0012 21.7721 13.1071 22.0249 13.2947 22.2109C13.4822 22.3969 13.7359 22.5008 14 22.4998C14.1843 22.4997 14.3651 22.4489 14.5225 22.3529L23.525 16.8442C23.6697 16.756 23.7893 16.6321 23.8723 16.4843C23.9553 16.3365 23.9989 16.1699 23.9989 16.0004C23.9989 15.831 23.9553 15.6644 23.8723 15.5166C23.7893 15.3688 23.6697 15.2449 23.525 15.1567V15.1554ZM14 21.4961V10.4998L22.9894 15.9998L14 21.4961Z" fill="black"/>
</svg>
