<svg width="20" height="20" viewBox="0 0 20 20" fill="none" xmlns="http://www.w3.org/2000/svg">
<path d="M19.4 12.25L12.25 19.4C12.05 19.6 11.825 19.75 11.575 19.85C11.325 19.95 11.075 20 10.825 20C10.575 20 10.325 19.95 10.075 19.85C9.825 19.75 9.6 19.6 9.4 19.4L0.575 10.575C0.391667 10.3917 0.25 10.1793 0.15 9.938C0.0500001 9.69667 0 9.44233 0 9.175V2C0 1.45 0.196 0.979333 0.588 0.588C0.98 0.196667 1.45067 0.000666667 2 0H9.175C9.44167 0 9.7 0.0543334 9.95 0.163C10.2 0.271667 10.4167 0.417333 10.6 0.6L19.4 9.425C19.6 9.625 19.746 9.85 19.838 10.1C19.93 10.35 19.9757 10.6 19.975 10.85C19.9743 11.1 19.9287 11.346 19.838 11.588C19.7473 11.83 19.6013 12.0507 19.4 12.25ZM10.825 18L17.975 10.85L9.15 2H2V9.15L10.825 18ZM4.5 6C4.91667 6 5.271 5.85433 5.563 5.563C5.855 5.27167 6.00067 4.91733 6 4.5C5.99933 4.08267 5.85367 3.72867 5.563 3.438C5.27233 3.14733 4.918 3.00133 4.5 3C4.082 2.99867 3.728 3.14467 3.438 3.438C3.148 3.73133 3.002 4.08533 3 4.5C2.998 4.91467 3.144 5.269 3.438 5.563C3.732 5.857 4.086 6.00267 4.5 6Z" fill="white"/>
</svg>
