<svg width="26" height="28" viewBox="0 0 26 28" fill="none" xmlns="http://www.w3.org/2000/svg">
<path d="M8.94468 26.3966C9.71063 26.3966 10.4452 26.0924 10.9868 25.5507C11.5284 25.0091 11.8327 24.2746 11.8327 23.5086C11.8327 22.7426 11.5284 22.0081 10.9868 21.4665C10.4452 20.9248 9.71063 20.6206 8.94468 20.6206C8.17872 20.6206 7.44414 20.9248 6.90253 21.4665C6.36091 22.0081 6.05664 22.7426 6.05664 23.5086C6.05664 24.2746 6.36091 25.0091 6.90253 25.5507C7.44414 26.0924 8.17872 26.3966 8.94468 26.3966ZM21.9413 22.7863C22.707 22.7863 23.4414 22.4822 23.9828 21.9407C24.5242 21.3993 24.8284 20.665 24.8284 19.8993C24.8284 19.1336 24.5242 18.3992 23.9828 17.8578C23.4414 17.3164 22.707 17.0122 21.9413 17.0122C21.1756 17.0122 20.4413 17.3164 19.8999 17.8578C19.3584 18.3992 19.0542 19.1336 19.0542 19.8993C19.0542 20.665 19.3584 21.3993 19.8999 21.9407C20.4413 22.4822 21.1756 22.7863 21.9413 22.7863Z" stroke="#073DA7" stroke-width="2" stroke-linecap="round" stroke-linejoin="round"/>
<path d="M24.8284 19.8993V8.57858C24.8278 8.46805 24.8018 8.35914 24.7525 8.26024C24.7031 8.16134 24.6317 8.07511 24.5438 8.0082C24.4558 7.94129 24.3536 7.89549 24.2451 7.87434C24.1366 7.85319 24.0248 7.85726 23.9181 7.88622L18.142 9.48886M24.8284 11.9574L14.31 14.8792M11.8337 23.5076V17.6486M3.87059 13.2727V17.6467M1.68359 15.4597H6.05759M9.18381 5.50829C10.042 4.34922 10.5705 1.979 10.5705 1.979C10.5705 1.979 11.0989 4.34922 11.9552 5.50829C12.8211 6.677 15.577 7.69915 15.577 7.69915C15.577 7.69915 12.8192 8.72129 11.9552 9.89193C11.0989 11.0491 10.5705 13.4193 10.5705 13.4193C10.5705 13.4193 10.042 11.051 9.18381 9.89C8.31981 8.72322 5.56388 7.69915 5.56388 7.69915C5.56388 7.69915 8.31981 6.677 9.18381 5.50829Z" stroke="#073DA7" stroke-width="2" stroke-linecap="round" stroke-linejoin="round"/>
</svg>
