<svg width="52" height="52" viewBox="0 0 52 52" fill="none" xmlns="http://www.w3.org/2000/svg">
<circle cx="26" cy="26" r="25.5" fill="white" stroke="#464646"/>
<g clip-path="url(#clip0_12_171)">
<path d="M22.2033 15.9367C19.9652 16.7132 18.0351 18.1868 16.6964 20.1413C15.3577 22.0958 14.6811 24.428 14.7659 26.7954C14.8507 29.1629 15.6924 31.4407 17.1675 33.2944C18.6425 35.1481 20.6731 36.4799 22.9611 37.0942C24.8159 37.5729 26.7593 37.5939 28.6241 37.1555C30.3134 36.776 31.8752 35.9644 33.1566 34.8C34.4902 33.5511 35.4582 31.9623 35.9566 30.2045C36.498 28.2929 36.5944 26.2826 36.2383 24.328H25.8223V28.6487H31.8546C31.734 29.3379 31.4757 29.9956 31.095 30.5826C30.7143 31.1695 30.2191 31.6736 29.6391 32.0647C28.9026 32.5522 28.0722 32.88 27.2013 33.0272C26.328 33.1897 25.4322 33.1897 24.5588 33.0272C23.6736 32.8444 22.8362 32.4791 22.1001 31.9545C20.9173 31.1173 20.0292 29.9279 19.5626 28.556C19.0881 27.1584 19.0881 25.6433 19.5626 24.2457C19.8948 23.2661 20.4439 22.3742 21.1691 21.6365C21.9989 20.7768 23.0495 20.1623 24.2056 19.8604C25.3617 19.5585 26.5786 19.5808 27.7228 19.925C28.6167 20.1993 29.4341 20.6787 30.1098 21.325C30.79 20.6483 31.469 19.9699 32.1468 19.2897C32.4968 18.924 32.8783 18.5757 33.2231 18.2012C32.1915 17.2414 30.9807 16.4945 29.6601 16.0032C27.255 15.13 24.6235 15.1065 22.2033 15.9367Z" fill="url(#paint0_linear_12_171)"/>
<path d="M22.2032 15.9367C24.6232 15.1059 27.2548 15.1288 29.66 16.0015C30.9809 16.4961 32.1911 17.2466 33.2212 18.21C32.8712 18.5845 32.502 18.9345 32.145 19.2985C31.466 19.9763 30.7876 20.6518 30.1097 21.325C29.434 20.6787 28.6166 20.1993 27.7227 19.925C26.5789 19.5796 25.362 19.556 24.2056 19.8566C23.0492 20.1573 21.998 20.7707 21.1672 21.6295C20.4421 22.3672 19.8929 23.2591 19.5607 24.2387L15.933 21.43C17.2315 18.855 19.4798 16.8853 22.2032 15.9367Z" fill="#E33629"/>
<path d="M14.9705 24.2125C15.1654 23.2461 15.4891 22.3102 15.933 21.43L19.5608 24.2457C19.0863 25.6433 19.0863 27.1584 19.5608 28.556C18.3521 29.4893 17.1429 30.4273 15.933 31.37C14.822 29.1585 14.4832 26.6389 14.9705 24.2125Z" fill="#F8BD00"/>
<path d="M25.8223 24.3262H36.2383C36.5944 26.2809 36.498 28.2911 35.9566 30.2027C35.4582 31.9606 34.4902 33.5494 33.1566 34.7982C31.9858 33.8847 30.8098 32.9782 29.6391 32.0647C30.2195 31.6732 30.7149 31.1686 31.0956 30.581C31.4763 29.9934 31.7344 29.335 31.8546 28.6452H25.8223C25.8206 27.2067 25.8223 25.7665 25.8223 24.3262Z" fill="#587DBD"/>
<path d="M15.9313 31.37C17.1411 30.4367 18.3504 29.4987 19.559 28.556C20.0266 29.9283 20.916 31.1178 22.1 31.9545C22.8384 32.4766 23.6776 32.839 24.564 33.0185C25.4374 33.1809 26.3332 33.1809 27.2065 33.0185C28.0774 32.8713 28.9078 32.5434 29.6443 32.056C30.815 32.9695 31.991 33.876 33.1618 34.7895C31.8806 35.9545 30.3188 36.7668 28.6293 37.1468C26.7645 37.5851 24.8211 37.5641 22.9663 37.0855C21.4993 36.6938 20.129 36.0033 18.9413 35.0573C17.6843 34.0591 16.6576 32.8014 15.9313 31.37Z" fill="#319F43"/>
</g>
<defs>
<linearGradient id="paint0_linear_12_171" x1="25.6039" y1="15.3307" x2="25.6039" y2="37.4694" gradientUnits="userSpaceOnUse">
<stop stop-color="#74BBFC"/>
<stop offset="1" stop-color="white"/>
</linearGradient>
<clipPath id="clip0_12_171">
<rect width="22.4" height="22.4" fill="white" transform="translate(14.4 15.2)"/>
</clipPath>
</defs>
</svg>
