<svg width="24" height="24" viewBox="0 0 24 24" fill="none" xmlns="http://www.w3.org/2000/svg">
<path d="M5.70002 4.80005C4.82481 4.80005 3.98544 5.14773 3.36657 5.7666C2.7477 6.38547 2.40002 7.22483 2.40002 8.10005V14.7C2.40002 15.5753 2.7477 16.4146 3.36657 17.0335C3.98544 17.6524 4.82481 18 5.70002 18H15.9C16.7752 18 17.6146 17.6524 18.2335 17.0335C18.8523 16.4146 19.2 15.5753 19.2 14.7V8.10005C19.2 7.22483 18.8523 6.38547 18.2335 5.7666C17.6146 5.14773 16.7752 4.80005 15.9 4.80005H5.70002ZM3.60002 14.7V12H7.55162L5.57522 13.9752C5.46256 14.0879 5.39927 14.2407 5.39927 14.4C5.39927 14.5594 5.46256 14.7122 5.57522 14.8248C5.68789 14.9375 5.84069 15.0008 6.00002 15.0008C6.15936 15.0008 6.31216 14.9375 6.42482 14.8248L8.40002 12.8484V16.8H5.70002C5.14307 16.8 4.60893 16.5788 4.2151 16.185C3.82127 15.7911 3.60002 15.257 3.60002 14.7ZM3.60002 10.8V8.10005C3.60002 6.94085 4.54082 6.00005 5.70002 6.00005H8.40002V7.52165C7.94249 7.25753 7.41059 7.15176 6.88682 7.22074C6.36305 7.28971 5.87667 7.52958 5.50311 7.90314C5.12955 8.2767 4.88969 8.76308 4.82071 9.28685C4.75174 9.81062 4.85751 10.3425 5.12162 10.8H3.60002ZM8.40002 10.8H7.20002C6.96269 10.8 6.73068 10.7297 6.53334 10.5978C6.336 10.466 6.18219 10.2785 6.09137 10.0593C6.00054 9.84 5.97678 9.59872 6.02308 9.36594C6.06938 9.13316 6.18367 8.91934 6.3515 8.75152C6.51932 8.5837 6.73314 8.46941 6.96592 8.42311C7.19869 8.3768 7.43997 8.40057 7.65924 8.49139C7.87852 8.58222 8.06593 8.73603 8.19779 8.93336C8.32965 9.1307 8.40002 9.36271 8.40002 9.60005V10.8ZM9.60002 10.8V9.60005C9.60002 9.36271 9.6704 9.1307 9.80226 8.93336C9.93412 8.73603 10.1215 8.58222 10.3408 8.49139C10.5601 8.40057 10.8014 8.3768 11.0341 8.42311C11.2669 8.46941 11.4807 8.5837 11.6486 8.75152C11.8164 8.91934 11.9307 9.13316 11.977 9.36594C12.0233 9.59872 11.9995 9.84 11.9087 10.0593C11.8179 10.2785 11.664 10.466 11.4667 10.5978C11.2694 10.7297 11.0374 10.8 10.8 10.8H9.60002ZM13.2 9.60005C13.2 9.17877 13.0891 8.76491 12.8785 8.40007C12.6678 8.03523 12.3648 7.73227 12 7.52163C11.6352 7.311 11.2213 7.20011 10.8 7.20011C10.3787 7.20011 9.96487 7.31101 9.60002 7.52165V6.00005H15.9C17.0592 6.00005 18 6.94085 18 8.10005V10.8H12.8784C13.0891 10.4352 13.2 10.0213 13.2 9.60005ZM12.4248 13.9752L10.4484 12H18V14.7C18 15.257 17.7788 15.7911 17.3849 16.185C16.9911 16.5788 16.457 16.8 15.9 16.8H9.60002V12.8484L11.5752 14.8248C11.6879 14.9375 11.8407 15.0008 12 15.0008C12.1594 15.0008 12.3122 14.9375 12.4248 14.8248C12.5375 14.7122 12.6008 14.5594 12.6008 14.4C12.6008 14.2407 12.5375 14.0879 12.4248 13.9752ZM8.10002 20.4C7.07402 20.4 6.15722 19.932 5.55242 19.1976L5.70002 19.2H15.9C17.0935 19.2 18.2381 18.7259 19.082 17.882C19.9259 17.0381 20.4 15.8935 20.4 14.7V8.10005L20.3976 7.95245C20.7743 8.26148 21.0775 8.65036 21.2855 9.09095C21.4934 9.53155 21.6009 10.0128 21.6 10.5V14.7C21.6 16.2118 20.9995 17.6616 19.9305 18.7306C18.8616 19.7995 17.4118 20.4 15.9 20.4H8.10002Z" fill="white"/>
</svg>
