<?xml version="1.0" encoding="UTF-8"?>
<svg xmlns="http://www.w3.org/2000/svg" xmlns:xlink="http://www.w3.org/1999/xlink" width="25px" height="25px" viewBox="0 0 25 25" version="1.1">
<g id="surface1">
<path style=" stroke:none;fill-rule:nonzero;fill:rgb(0%,0%,0%);fill-opacity:1;" d="M 24.511719 0.277344 C 24.265625 0.0625 23.9375 -0.0351562 23.613281 0.0117188 L 7.855469 2.261719 C 7.300781 2.339844 6.886719 2.816406 6.886719 3.375 L 6.886719 16.578125 C 6.21875 16.1875 5.445312 15.964844 4.621094 15.964844 C 2.128906 15.964844 0.101562 17.988281 0.101562 20.484375 C 0.101562 22.972656 2.128906 25 4.621094 25 C 7.113281 25 9.136719 22.972656 9.136719 20.484375 L 9.136719 8.855469 L 22.644531 6.925781 L 22.644531 14.324219 C 21.980469 13.9375 21.207031 13.714844 20.378906 13.714844 C 17.886719 13.714844 15.863281 15.738281 15.863281 18.230469 C 15.863281 20.71875 17.886719 22.746094 20.378906 22.746094 C 22.871094 22.746094 24.898438 20.71875 24.898438 18.230469 L 24.898438 1.125 C 24.898438 0.796875 24.753906 0.488281 24.511719 0.277344 Z M 4.621094 22.746094 C 3.371094 22.746094 2.355469 21.730469 2.355469 20.484375 C 2.355469 19.230469 3.371094 18.214844 4.621094 18.214844 C 5.871094 18.214844 6.886719 19.230469 6.886719 20.484375 C 6.886719 21.730469 5.871094 22.746094 4.621094 22.746094 Z M 22.644531 4.652344 L 9.136719 6.582031 L 9.136719 4.351562 L 22.644531 2.425781 Z M 20.378906 20.496094 C 19.128906 20.496094 18.113281 19.480469 18.113281 18.230469 C 18.113281 16.980469 19.128906 15.964844 20.378906 15.964844 C 21.628906 15.964844 22.644531 16.980469 22.644531 18.230469 C 22.644531 19.480469 21.628906 20.496094 20.378906 20.496094 Z M 20.378906 20.496094 "/>
</g>
</svg>
