<svg width="27" height="28" viewBox="0 0 27 28" fill="none" xmlns="http://www.w3.org/2000/svg">
<path d="M13.5 18.4998C7.01997 18.4998 5.87247 12.0423 5.66997 6.91903C5.61259 5.49478 5.58447 4.78153 6.11997 4.1234C6.65434 3.46415 7.29447 3.35615 8.57584 3.14015C10.2035 2.87339 11.8506 2.74281 13.5 2.74978C15.507 2.74978 17.1596 2.9264 18.4241 3.14015C19.7055 3.35615 20.3456 3.46415 20.8811 4.1234C21.4166 4.78265 21.3873 5.49478 21.3311 6.91903C21.1286 12.0412 19.9811 18.4998 13.5011 18.4998H13.5Z" stroke="#F8BD00" stroke-width="2"/>
<path d="M14.625 12.3125V6.125" stroke="#F8BD00" stroke-width="2" stroke-linecap="round"/>
<path d="M12.9375 14C13.8695 14 14.625 13.2445 14.625 12.3125C14.625 11.3805 13.8695 10.625 12.9375 10.625C12.0055 10.625 11.25 11.3805 11.25 12.3125C11.25 13.2445 12.0055 14 12.9375 14Z" stroke="#F8BD00" stroke-width="2"/>
<path d="M16.875 8.375C16.2783 8.375 15.706 8.13795 15.284 7.71599C14.8621 7.29403 14.625 6.72174 14.625 6.125" stroke="#F8BD00" stroke-width="2" stroke-linecap="round"/>
<path d="M21.375 6.125L22.4426 6.4805C23.5564 6.85175 24.1132 7.03737 24.4316 7.4795C24.75 7.92163 24.75 8.50887 24.75 9.68225V9.76437C24.75 10.7319 24.75 11.2168 24.5171 11.6128C24.2842 12.0088 23.8601 12.2439 23.0141 12.7152L19.6875 14.5625M5.625 6.125L4.55737 6.4805C3.44362 6.85175 2.88675 7.03737 2.56837 7.4795C2.25 7.92163 2.25 8.51 2.25 9.68225V9.76437C2.25 10.7319 2.25 11.2168 2.48287 11.6128C2.71575 12.0088 3.13987 12.2439 3.98587 12.7152L7.3125 14.5625" stroke="#F8BD00" stroke-width="2"/>
<path d="M13.5 18.5V21.875" stroke="#F8BD00" stroke-width="2" stroke-linecap="round"/>
<path d="M17.4375 25.25H9.5625L9.945 23.342C9.99596 23.0871 10.1336 22.8576 10.3346 22.6927C10.5356 22.5279 10.7875 22.4377 11.0475 22.4375H15.9525C16.2125 22.4377 16.4644 22.5279 16.6654 22.6927C16.8664 22.8576 17.004 23.0871 17.055 23.342L17.4375 25.25Z" stroke="#F8BD00" stroke-width="2" stroke-linecap="round" stroke-linejoin="round"/>
<path d="M20.25 25.25H6.75" stroke="#F8BD00" stroke-width="2" stroke-linecap="round"/>
</svg>
