<svg width="40" height="40" viewBox="0 0 40 40" fill="none" xmlns="http://www.w3.org/2000/svg">
<path d="M0 20C0 8.95431 8.95431 0 20 0C31.0457 0 40 8.95431 40 20C40 31.0457 31.0457 40 20 40C8.95431 40 0 31.0457 0 20Z" fill="url(#paint0_linear)"/>
<path fill-rule="evenodd" clip-rule="evenodd" d="M23.0863 10.9781C23.2472 10.8172 23.2472 10.5563 23.0863 10.3953C22.9254 10.2344 22.6645 10.2344 22.5036 10.3953C22.0216 10.8773 21.316 11.3025 20.5013 11.6682C19.6912 12.0319 18.7982 12.3259 17.9626 12.5564C17.1281 12.7866 16.3581 12.9515 15.7964 13.0589C15.5158 13.1125 15.2878 13.1517 15.1306 13.1774C15.052 13.1902 14.9911 13.1997 14.9501 13.2059L14.904 13.2127L14.8927 13.2144L14.8901 13.2147L14.8896 13.2148L14.8896 13.2148L14.8895 13.2148C14.7266 13.2378 14.5929 13.3556 14.5496 13.5144L10.2892 29.1358C10.2503 29.2785 10.2908 29.4311 10.3954 29.5356C10.4999 29.6402 10.6525 29.6807 10.7951 29.6418L26.4166 25.3814C26.5432 25.3469 26.6458 25.254 26.6929 25.1315C26.7396 25.0096 26.7258 24.8728 26.6558 24.7627C26.6557 24.7626 26.6556 24.7624 26.6555 24.7622C26.6553 24.7619 26.6551 24.7616 26.6549 24.7613L26.6551 24.7616L26.6496 24.7523C26.6437 24.7423 26.634 24.7253 26.6216 24.7018C26.5968 24.6547 26.5614 24.582 26.5239 24.4872C26.4487 24.297 26.367 24.0224 26.3432 23.6901C26.2967 23.0415 26.4665 22.1277 27.4453 21.149C27.6062 20.9881 27.6062 20.7272 27.4453 20.5662C27.2843 20.4053 27.0234 20.4053 26.8625 20.5662C25.7111 21.7177 25.458 22.8671 25.5212 23.749C25.5492 24.1403 25.6387 24.4699 25.7288 24.7148L11.274 28.657L15.2744 13.9889C15.4376 13.9622 15.6689 13.9223 15.9512 13.8684C16.5281 13.7581 17.3206 13.5884 18.1818 13.3508C19.0419 13.1136 19.9777 12.8066 20.8388 12.4201C21.6952 12.0356 22.5032 11.5612 23.0863 10.9781ZM31.5572 16.2981C31.5825 16.3797 31.5702 16.4714 31.5238 16.5485C31.0161 17.3913 30.3591 17.9137 29.5546 18.1259C28.0352 18.5266 26.3785 17.6796 25.2495 16.9091C25.1531 16.8433 25.0539 16.7778 24.9608 16.7164C24.7875 16.602 24.6353 16.5015 24.5609 16.4385L20.4362 22.4824C19.8025 23.411 18.7286 23.888 17.5499 23.7488C17.0155 23.6858 16.5298 23.5139 16.1299 23.2409C15.4547 22.7801 15.1255 22.0989 15.2501 21.419C15.3529 20.8586 15.7396 20.3734 16.3406 20.0536C16.9056 19.753 17.599 19.6315 18.2956 19.7137C18.8297 19.7767 19.3201 19.952 19.7199 20.2248C19.858 20.319 19.9792 20.4206 20.0849 20.53L24.8799 13.504C24.9723 13.3686 25.1535 13.3298 25.2809 13.4111C27.2919 14.694 31.3521 16.1118 31.3929 16.1259C31.4716 16.1532 31.5319 16.2163 31.5572 16.2981Z" fill="white"/>
<defs>
<linearGradient id="paint0_linear" x1="0" y1="0" x2="0" y2="40" gradientUnits="userSpaceOnUse">
<stop stop-color="#43A5FF"/>
<stop offset="1" stop-color="#1B65FF"/>
</linearGradient>
</defs>
</svg>
