<svg width="40" height="40" viewBox="0 0 40 40" fill="none" xmlns="http://www.w3.org/2000/svg">
  <path d="M0 20C0 8.95431 8.95431 0 20 0C31.0457 0 40 8.95431 40 20C40 31.0457 31.0457 40 20 40C8.95431 40 0 31.0457 0 20Z" fill="#383838"/>
  <path d="M19.9998 9.91666C18.0055 9.91666 16.056 10.508 14.3978 11.616C12.7396 12.724 11.4472 14.2988 10.6841 16.1413C9.92087 17.9838 9.72119 20.0112 10.1103 21.9671C10.4993 23.9231 11.4597 25.7198 12.8698 27.13C14.28 28.5402 16.0767 29.5005 18.0327 29.8896C19.9887 30.2786 22.0161 30.079 23.8586 29.3158C25.7011 28.5526 27.2759 27.2602 28.3838 25.602C29.4918 23.9438 30.0832 21.9943 30.0832 20C30.0832 17.3257 29.0208 14.761 27.1298 12.87C25.2388 10.979 22.6741 9.91666 19.9998 9.91666ZM14.0415 20C14.0415 20.2431 13.9449 20.4763 13.773 20.6482C13.6011 20.8201 13.368 20.9167 13.1248 20.9167C12.8817 20.9167 12.6486 20.8201 12.4767 20.6482C12.3048 20.4763 12.2082 20.2431 12.2082 20C12.2106 17.9343 13.0323 15.9538 14.493 14.4931C15.9537 13.0324 17.9341 12.2107 19.9998 12.2083C20.243 12.2083 20.4761 12.3049 20.648 12.4768C20.8199 12.6487 20.9165 12.8819 20.9165 13.125C20.9165 13.3681 20.8199 13.6013 20.648 13.7732C20.4761 13.9451 20.243 14.0417 19.9998 14.0417C18.4203 14.0441 16.9062 14.6726 15.7893 15.7895C14.6725 16.9064 14.0439 18.4205 14.0415 20ZM16.3332 20C16.3332 19.2748 16.5482 18.5659 16.9511 17.9629C17.354 17.3599 17.9267 16.89 18.5967 16.6124C19.2667 16.3349 20.0039 16.2623 20.7152 16.4038C21.4264 16.5453 22.0798 16.8945 22.5926 17.4073C23.1054 17.9201 23.4546 18.5734 23.5961 19.2847C23.7375 19.9959 23.6649 20.7332 23.3874 21.4032C23.1099 22.0732 22.6399 22.6458 22.0369 23.0487C21.434 23.4516 20.725 23.6667 19.9998 23.6667C19.0274 23.6667 18.0948 23.2803 17.4071 22.5927C16.7195 21.9051 16.3332 20.9725 16.3332 20ZM19.9998 27.7917C19.7567 27.7917 19.5236 27.6951 19.3517 27.5232C19.1798 27.3513 19.0832 27.1181 19.0832 26.875C19.0832 26.6319 19.1798 26.3987 19.3517 26.2268C19.5236 26.0549 19.7567 25.9583 19.9998 25.9583C21.5793 25.9559 23.0935 25.3274 24.2103 24.2105C25.3272 23.0936 25.9558 21.5795 25.9582 20C25.9582 19.7569 26.0548 19.5237 26.2267 19.3518C26.3986 19.1799 26.6317 19.0833 26.8748 19.0833C27.118 19.0833 27.3511 19.1799 27.523 19.3518C27.6949 19.5237 27.7915 19.7569 27.7915 20C27.7891 22.0657 26.9674 24.0462 25.5067 25.5069C24.046 26.9675 22.0656 27.7892 19.9998 27.7917Z" fill="white"/>
  <path d="M19.9998 21.8333C21.0124 21.8333 21.8332 21.0125 21.8332 20C21.8332 18.9875 21.0124 18.1667 19.9998 18.1667C18.9873 18.1667 18.1665 18.9875 18.1665 20C18.1665 21.0125 18.9873 21.8333 19.9998 21.8333Z" fill="white"/>
</svg>
