<svg width="24" height="24" viewBox="0 0 24 24" fill="none" xmlns="http://www.w3.org/2000/svg">
<path fill-rule="evenodd" clip-rule="evenodd" d="M12 1C9.01261 1 8.63799 1.01265 7.4647 1.06621C6.29389 1.11962 5.49426 1.30559 4.79452 1.5775C4.0712 1.85862 3.45774 2.23475 2.84621 2.84628C2.23468 3.45781 1.85855 4.07127 1.57743 4.79459C1.30553 5.49426 1.11962 6.29389 1.06614 7.4647C1.01265 8.63799 1 9.01261 1 12C1 14.9874 1.01265 15.362 1.06614 16.5353C1.11962 17.7061 1.30553 18.5057 1.57743 19.2054C1.85855 19.9287 2.23468 20.5422 2.84621 21.1538C3.45774 21.7653 4.0712 22.1415 4.79452 22.4226C5.49426 22.6944 6.29389 22.8804 7.4647 22.9338C8.63799 22.9874 9.01261 23 12 23C14.9874 23 15.362 22.9874 16.5353 22.9338C17.7061 22.8804 18.5057 22.6944 19.2054 22.4226C19.9287 22.1415 20.5422 21.7653 21.1538 21.1538C21.7653 20.5422 22.1415 19.9287 22.4226 19.2054C22.6944 18.5057 22.8804 17.7061 22.9338 16.5353C22.9874 15.362 23 14.9874 23 12C23 9.01261 22.9874 8.63799 22.9338 7.4647C22.8804 6.29389 22.6944 5.49426 22.4226 4.79459C22.1415 4.07127 21.7653 3.45781 21.1538 2.84628C20.5422 2.23475 19.9287 1.85862 19.2054 1.5775C18.5057 1.30559 17.7061 1.11962 16.5353 1.06621C15.362 1.01265 14.9874 1 12 1ZM16.445 3.04614C15.285 2.9932 14.9371 2.98199 12 2.98199C9.06286 2.98199 8.71499 2.9932 7.55504 3.04614C6.48254 3.09509 5.90016 3.27425 5.51254 3.42488C4.99905 3.62439 4.63261 3.86282 4.24768 4.24775C3.86275 4.63261 3.62439 4.99912 3.42488 5.51254C3.27425 5.90016 3.09502 6.48254 3.04607 7.55504C2.99313 8.71499 2.98199 9.06286 2.98199 12C2.98199 14.9371 2.99313 15.285 3.04607 16.445C3.09502 17.5175 3.27425 18.0998 3.42488 18.4875C3.62439 19.001 3.86275 19.3674 4.24768 19.7523C4.63261 20.1373 4.99905 20.3756 5.51254 20.5751C5.90016 20.7257 6.48254 20.905 7.55504 20.9539C8.71485 21.0068 9.06266 21.018 12 21.018C14.9373 21.018 15.2852 21.0068 16.445 20.9539C17.5175 20.905 18.0998 20.7257 18.4875 20.5751C19.001 20.3756 19.3674 20.1373 19.7523 19.7523C20.1373 19.3674 20.3756 19.001 20.5751 18.4875C20.7257 18.0998 20.905 17.5175 20.9539 16.445C21.0068 15.285 21.018 14.9371 21.018 12C21.018 9.06286 21.0068 8.71499 20.9539 7.55504C20.905 6.48254 20.7257 5.90016 20.5751 5.51254C20.3756 4.99912 20.1373 4.63261 19.7523 4.24775C19.3674 3.86282 19.001 3.62439 18.4875 3.42488C18.0998 3.27425 17.5175 3.09509 16.445 3.04614Z" fill="url(#paint0_linear)"/>
<path d="M19.1919 6.1282C19.1919 6.85722 18.6008 7.44813 17.8718 7.44813C17.1428 7.44813 16.5519 6.85722 16.5519 6.1282C16.5519 5.39918 17.1428 4.8082 17.8718 4.8082C18.6008 4.8082 19.1919 5.39918 19.1919 6.1282Z" fill="url(#paint1_linear)"/>
<path fill-rule="evenodd" clip-rule="evenodd" d="M12 6.35136C8.88033 6.35136 6.35136 8.88033 6.35136 12C6.35136 15.1197 8.88033 17.6486 12 17.6486C15.1197 17.6486 17.6486 15.1197 17.6486 12C17.6486 8.88033 15.1197 6.35136 12 6.35136ZM8.33336 12C8.33336 14.025 9.97497 15.6666 12 15.6666C14.025 15.6666 15.6666 14.025 15.6666 12C15.6666 9.97497 14.025 8.33336 12 8.33336C9.97497 8.33336 8.33336 9.97497 8.33336 12Z" fill="url(#paint2_linear)"/>
<defs>
<linearGradient id="paint0_linear" x1="1" y1="23" x2="23" y2="1" gradientUnits="userSpaceOnUse">
<stop stop-color="#FEDA75"/>
<stop offset="0.25" stop-color="#FA7E1E"/>
<stop offset="0.510417" stop-color="#D62976"/>
<stop offset="0.744792" stop-color="#962FBF"/>
<stop offset="1" stop-color="#4F5BD5"/>
</linearGradient>
<linearGradient id="paint1_linear" x1="1" y1="23" x2="23" y2="1" gradientUnits="userSpaceOnUse">
<stop stop-color="#FEDA75"/>
<stop offset="0.25" stop-color="#FA7E1E"/>
<stop offset="0.510417" stop-color="#D62976"/>
<stop offset="0.744792" stop-color="#962FBF"/>
<stop offset="1" stop-color="#4F5BD5"/>
</linearGradient>
<linearGradient id="paint2_linear" x1="1" y1="23" x2="23" y2="1" gradientUnits="userSpaceOnUse">
<stop stop-color="#FEDA75"/>
<stop offset="0.25" stop-color="#FA7E1E"/>
<stop offset="0.510417" stop-color="#D62976"/>
<stop offset="0.744792" stop-color="#962FBF"/>
<stop offset="1" stop-color="#4F5BD5"/>
</linearGradient>
</defs>
</svg>
