<svg width="24" height="24" viewBox="0 0 24 24" fill="none" xmlns="http://www.w3.org/2000/svg">
<path fill-rule="evenodd" clip-rule="evenodd" d="M7.97385 19.1157L12.4874 19.1983C12.4946 19.1983 12.509 19.1983 12.5089 19.2094C15.0223 19.2563 17.4712 19.1089 19.9776 18.9257C21.978 18.7856 22.452 17.3346 22.6998 15.6043C23.0086 13.5145 23.0768 11.3996 22.9153 9.29544C22.9075 9.19568 22.9 9.09502 22.8924 8.99373C22.7418 6.98046 22.5726 4.71781 20.1931 4.30071C19.6868 4.21089 19.1698 4.13198 18.6563 4.11754C13.7945 3.96005 8.88948 3.92005 4.01686 4.25762C2.57344 4.35064 1.64007 5.20543 1.4029 6.63794C0.982778 9.19096 0.896594 11.8122 1.11922 14.3867C1.122 14.4182 1.12477 14.4498 1.12755 14.4814C1.28669 16.2925 1.47265 18.4088 3.61471 18.8464C4.76792 19.0862 5.94205 19.0958 7.11837 19.1054C7.40349 19.1078 7.68874 19.1101 7.97385 19.1157ZM12.1759 13.472C11.3985 13.9188 10.6193 14.3667 9.83387 14.8176V8.36152C10.7001 8.85838 11.5602 9.35296 12.4213 9.84806C13.427 10.4263 14.4339 11.0053 15.4534 11.5896C14.3563 12.2188 13.2679 12.8444 12.1759 13.472Z" fill="#F52626"/>
</svg>
