<svg width="24" height="24" viewBox="0 0 24 24" fill="none" xmlns="http://www.w3.org/2000/svg">
<path d="M20.8966 2H3.10345C2.49403 2 2 2.49403 2 3.10345V20.8966C2 21.506 2.49403 22 3.10345 22H12.6897V14.2655H10.0862V11.2379H12.6897V9.01034C12.6897 6.42759 14.269 5.02069 16.5724 5.02069C17.3486 5.019 18.1244 5.05813 18.8966 5.13793V7.83793H17.3103C16.0552 7.83793 15.8103 8.43103 15.8103 9.3069V11.2345H18.8103L18.4207 14.2621H15.7931V22H20.8966C21.506 22 22 21.506 22 20.8966V3.10345C22 2.49403 21.506 2 20.8966 2Z" fill="#4B6FB9"/>
</svg>
