<svg width="24" height="24" viewBox="0 0 24 24" fill="none" xmlns="http://www.w3.org/2000/svg">
<path fill-rule="evenodd" clip-rule="evenodd" d="M12 17.0769H21.09C22.6965 17.0769 24 15.6751 24 13.9485C24 11.6993 21.831 10.151 19.878 11.1147C19.674 8.25677 17.475 6 14.7615 6C13.74 6 12.798 6.33081 12 6.88368V17.0769ZM10.9995 17.0769H9.999V8.46674L10.3785 8.65254C10.557 8.33985 10.77 8.05587 10.9995 7.7885V17.0769ZM7.9995 17.0769H9V8.16614C8.54392 8.09569 8.40399 8.11151 8.10833 8.14495C8.07435 8.14879 8.03831 8.15287 7.9995 8.15707V17.0769ZM7.0005 17.0769H6V8.95314C6.309 8.72051 6.639 8.52112 7.0005 8.38366V17.0769ZM4.0005 17.0769H4.9995H5.001V10.0075C4.689 10.4682 4.446 10.9863 4.3095 11.5528L4.0005 11.37V17.0769ZM3 17.0769L2.96754 17.0769C2.62388 17.077 2.43304 17.0771 1.9995 16.9379V11.2099C2.4735 11.0573 2.697 11.0634 3 11.0876V17.0769ZM1.0005 16.3579C0.393 15.8065 0 14.9939 0 14.0739C0 13.1555 0.393 12.3428 1.0005 11.79V16.3579Z" fill="#F06500"/>
</svg>
