<svg width="24" height="24" viewBox="0 0 24 24" fill="none" xmlns="http://www.w3.org/2000/svg">
<path d="M21.823 9.9008C21.6432 9.91827 21.4627 9.92743 21.2821 9.92824C20.3069 9.92837 19.347 9.68566 18.4891 9.22201C17.6312 8.75836 16.9023 8.08836 16.3681 7.2725V16.316C16.3681 17.6379 15.976 18.9302 15.2416 20.0294C14.5071 21.1286 13.4632 21.9853 12.2419 22.4912C11.0206 22.9971 9.67662 23.1295 8.38004 22.8716C7.08347 22.6137 5.89249 21.9771 4.95771 21.0423C4.02293 20.1075 3.38634 18.9165 3.12843 17.62C2.87053 16.3234 3.0029 14.9794 3.50879 13.7581C4.01469 12.5368 4.8714 11.4928 5.97058 10.7584C7.06977 10.0239 8.36206 9.63194 9.68403 9.63194C9.82356 9.63194 9.95995 9.64448 10.0971 9.6531V12.9469C9.95995 12.9304 9.82513 12.9054 9.68403 12.9054C8.77928 12.9054 7.91158 13.2648 7.27182 13.9045C6.63206 14.5443 6.27264 15.412 6.27264 16.3167C6.27264 17.2215 6.63206 18.0892 7.27182 18.729C7.91158 19.3687 8.77928 19.7281 9.68403 19.7281C11.5684 19.7281 13.2326 18.2435 13.2326 16.3591L13.2655 1H16.4167C16.5606 2.36917 17.1813 3.64417 18.1701 4.60206C19.159 5.55995 20.4531 6.13977 21.8261 6.24015V9.9008" fill="#0A0A09"/>
</svg>
