<svg width="24" height="24" viewBox="0 0 24 24" fill="none" xmlns="http://www.w3.org/2000/svg">
<path d="M23 5.08339C22.1912 5.43729 21.3208 5.67601 20.4076 5.78283C21.3401 5.2333 22.055 4.36284 22.3922 3.32444C21.52 3.83397 20.5545 4.2037 19.526 4.40329C18.703 3.53986 17.5298 3 16.2316 3C13.7392 3 11.7184 4.98931 11.7184 7.4433C11.7184 7.79105 11.7582 8.13 11.8354 8.45576C8.08414 8.27024 4.75799 6.50162 2.53178 3.81331C2.14325 4.46923 1.92085 5.23242 1.92085 6.04749C1.92085 7.58882 2.71756 8.94902 3.92869 9.74563C3.18915 9.72233 2.49293 9.5223 1.88423 9.1895C1.88379 9.20796 1.88379 9.22687 1.88379 9.24577C1.88379 11.3982 3.43968 13.1936 5.50468 13.6025C5.12598 13.7036 4.72718 13.7581 4.31543 13.7581C4.02426 13.7581 3.74157 13.7304 3.46603 13.6781C4.04078 15.4432 5.70743 16.7282 7.68222 16.7638C6.13749 17.9556 4.19173 18.6661 2.07671 18.6661C1.71275 18.6661 1.35325 18.645 1 18.6037C2.99801 19.8649 5.37026 20.6 7.9189 20.6C16.2213 20.6 20.7608 13.8298 20.7608 7.95811C20.7608 7.76555 20.7568 7.57343 20.7483 7.38263C21.6299 6.75749 22.3953 5.97451 23 5.08339Z" fill="#00ACEE"/>
</svg>
